<svg width="24" height="22" viewBox="0 0 24 22" fill="none" xmlns="http://www.w3.org/2000/svg">
<path fill-rule="evenodd" clip-rule="evenodd" d="M8.25 1C8.25 0.585786 8.58579 0.25 9 0.25C10.2267 0.25 11.3158 0.839009 12 1.74964C12.6842 0.839009 13.7733 0.25 15 0.25C15.4142 0.25 15.75 0.585786 15.75 1C15.75 1.41421 15.4142 1.75 15 1.75C13.7575 1.75 12.7503 2.75708 12.75 3.99948V4H22C23.1046 4 24 4.89543 24 6V16C24 17.1046 23.1046 18 22 18H12.75V18.0021C12.7511 19.2438 13.7581 20.25 15 20.25C15.4142 20.25 15.75 20.5858 15.75 21C15.75 21.4142 15.4142 21.75 15 21.75C13.7733 21.75 12.6842 21.161 12 20.2504C11.3158 21.161 10.2267 21.75 9 21.75C8.58579 21.75 8.25 21.4142 8.25 21C8.25 20.5858 8.58579 20.25 9 20.25C10.2426 20.25 11.25 19.2426 11.25 18H2C0.89543 18 0 17.1046 0 16V6C0 4.89543 0.895431 4 2 4H11.25C11.25 2.75736 10.2426 1.75 9 1.75C8.58579 1.75 8.25 1.41421 8.25 1ZM2 5.5H11.25V10.25H9.75C9.33579 10.25 9 10.5858 9 11C9 11.4142 9.33579 11.75 9.75 11.75H11.25V16.5H2C1.72386 16.5 1.5 16.2761 1.5 16V6C1.5 5.72386 1.72386 5.5 2 5.5ZM12.75 11.75V16.5H22C22.2761 16.5 22.5 16.2761 22.5 16V6C22.5 5.72386 22.2761 5.5 22 5.5H12.75V10.25H14.25C14.6642 10.25 15 10.5858 15 11C15 11.4142 14.6642 11.75 14.25 11.75H12.75Z" fill="#21242C"/>
</svg>
