<svg width="24" height="22" viewBox="0 0 24 22" fill="none" xmlns="http://www.w3.org/2000/svg">
<path fill-rule="evenodd" clip-rule="evenodd" d="M5.75 1C5.75 0.585786 5.41421 0.25 5 0.25C4.58579 0.25 4.25 0.585786 4.25 1L4.25 3.5H2C1.17157 3.5 0.5 4.17157 0.5 5V20C0.5 20.8284 1.17157 21.5 2 21.5H22C22.8284 21.5 23.5 20.8284 23.5 20V5C23.5 4.17157 22.8284 3.5 22 3.5H19.75V1C19.75 0.585786 19.4142 0.25 19 0.25C18.5858 0.25 18.25 0.585786 18.25 1V3.5H5.75V1ZM2 8.25V5H22V8.25L2 8.25ZM2 9.75L2 20H22V9.75L2 9.75Z" fill="#21242C"/>
</svg>
